<svg width="1591" height="517" viewBox="0 0 1591 517" fill="none" xmlns="http://www.w3.org/2000/svg">
<path d="M617.028 173.601C632.5 173.459 647.765 177.162 661.454 184.376C675.142 191.59 686.827 202.09 695.458 214.934L673.971 232.129C667.817 222.729 659.436 214.996 649.574 209.617C639.712 204.237 628.674 201.378 617.441 201.294C608.183 201.345 599.029 203.248 590.516 206.891C582.004 210.534 574.307 215.843 567.877 222.506C561.446 229.169 556.414 237.051 553.074 245.689C549.735 254.326 548.157 263.545 548.433 272.801C548.135 282.076 549.696 291.316 553.024 299.977C556.352 308.639 561.38 316.546 567.811 323.233C574.243 329.921 581.947 335.253 590.471 338.915C598.994 342.577 608.165 344.495 617.441 344.556C628.583 344.478 639.535 341.663 649.335 336.358C659.134 331.053 667.48 323.422 673.64 314.135L695.045 330.668C686.517 343.517 674.912 354.03 661.286 361.248C647.66 368.467 632.446 372.164 617.028 372.002C590.726 372.002 565.5 361.55 546.901 342.947C528.303 324.343 517.854 299.111 517.854 272.801C517.854 246.492 528.303 221.26 546.901 202.656C565.5 184.052 590.726 173.601 617.028 173.601Z" fill="#141414"/>
<path d="M820.17 173.601C839.784 173.601 858.959 179.419 875.268 190.319C891.577 201.219 904.288 216.712 911.794 234.839C919.301 252.966 921.265 272.911 917.438 292.154C913.611 311.397 904.166 329.073 890.296 342.947C876.426 356.82 858.755 366.268 839.517 370.096C820.28 373.923 800.339 371.959 782.217 364.451C764.096 356.942 748.607 344.228 737.709 327.914C726.812 311.601 720.995 292.421 720.995 272.801C720.995 246.492 731.444 221.26 750.043 202.656C768.642 184.052 793.867 173.601 820.17 173.601ZM820.17 201.294C810.92 201.309 801.768 203.191 793.262 206.827C784.756 210.462 777.071 215.777 770.666 222.454C764.262 229.13 759.27 237.03 755.99 245.681C752.709 254.332 751.207 263.556 751.574 272.801C751.254 282.018 752.793 291.204 756.098 299.813C759.404 308.422 764.408 316.277 770.813 322.91C777.218 329.543 784.893 334.818 793.38 338.421C801.866 342.024 810.991 343.88 820.211 343.88C829.43 343.88 838.555 342.024 847.042 338.421C855.529 334.818 863.204 329.543 869.609 322.91C876.014 316.277 881.018 308.422 884.323 299.813C887.629 291.204 889.167 282.018 888.848 272.801C889.214 263.537 887.711 254.295 884.428 245.624C881.145 236.954 876.15 229.035 869.74 222.338C863.331 215.641 855.638 210.304 847.121 206.646C838.604 202.988 829.438 201.084 820.17 201.046V201.294Z" fill="#141414"/>
<path d="M1065.38 204.188H1054.14C1022.15 204.188 994.468 224.854 994.468 259.905V367.373H964.468V177.238H992.485V204.188C999.417 195.182 1008.35 187.916 1018.58 182.965C1028.81 178.015 1040.05 175.516 1051.41 175.668C1056.11 175.663 1060.8 176.189 1065.38 177.238V204.188Z" fill="#141414"/>
<path d="M1097.77 75.0617H1127.77V367.538H1097.77V75.0617ZM1256.87 367.538H1218.27L1130.91 260.732L1210.09 178.065H1249.43L1166.78 261.559L1256.87 367.538Z" fill="#141414"/>
<path d="M1365.21 173.601C1384.83 173.601 1404 179.419 1420.31 190.319C1436.62 201.219 1449.33 216.712 1456.84 234.839C1464.34 252.966 1466.31 272.911 1462.48 292.154C1458.66 311.397 1449.21 329.073 1435.34 342.947C1421.47 356.82 1403.8 366.268 1384.56 370.096C1365.32 373.923 1345.38 371.959 1327.26 364.451C1309.14 356.942 1293.65 344.228 1282.75 327.914C1271.86 311.601 1266.04 292.421 1266.04 272.801C1266.04 246.492 1276.49 221.26 1295.09 202.656C1313.69 184.052 1338.91 173.601 1365.21 173.601ZM1365.21 201.294C1355.94 201.308 1346.77 203.197 1338.25 206.848C1329.72 210.499 1322.03 215.837 1315.62 222.539C1309.21 229.242 1304.22 237.172 1300.96 245.853C1297.69 254.533 1296.22 263.784 1296.62 273.049C1296.62 282.06 1298.39 290.982 1301.84 299.307C1305.29 307.631 1310.34 315.195 1316.71 321.567C1323.08 327.938 1330.64 332.992 1338.96 336.44C1347.29 339.888 1356.21 341.663 1365.21 341.663C1374.22 341.663 1383.14 339.888 1391.46 336.44C1399.79 332.992 1407.35 327.938 1413.72 321.567C1420.09 315.195 1425.14 307.631 1428.59 299.307C1432.03 290.982 1433.81 282.06 1433.81 273.049C1434.21 263.772 1432.73 254.509 1429.47 245.816C1426.21 237.122 1421.23 229.176 1414.82 222.453C1408.42 215.731 1400.72 210.37 1392.2 206.692C1383.68 203.013 1374.5 201.093 1365.21 201.046V201.294Z" fill="#141414"/>
<path d="M277.935 108.211C270.664 108.203 263.402 108.7 256.2 109.699C214.816 115.147 177.056 136.146 150.59 168.432C124.123 200.718 110.934 241.87 113.701 283.53C116.468 325.19 134.983 364.235 165.487 392.735C195.99 421.235 236.195 437.054 277.935 436.978C285.207 437.023 292.473 436.526 299.671 435.49C341.055 430.042 378.814 409.043 405.281 376.757C431.747 344.471 444.936 303.32 442.17 261.66C439.403 220 420.888 180.955 390.384 152.455C359.881 123.954 319.676 108.136 277.935 108.211ZM361.324 269.495H337.44V381.509H218.431V269.495H194.546V175.089H361.324V269.495Z" fill="#8C442A"/>
<path d="M337.357 199.062V245.521H327.522C325.699 245.51 323.891 245.859 322.203 246.547C320.514 247.235 318.977 248.248 317.68 249.53C316.383 250.812 315.352 252.337 314.644 254.018C313.936 255.699 313.566 257.503 313.555 259.327V357.7H242.315V259.327C242.305 257.503 241.935 255.699 241.227 254.018C240.519 252.337 239.487 250.812 238.19 249.53C236.893 248.248 235.357 247.235 233.668 246.547C231.979 245.859 230.172 245.51 228.348 245.521H218.431V199.062H229.588C238.423 198.898 247.011 201.979 253.728 207.722C260.444 213.466 264.823 221.473 266.034 230.228C266.117 231.549 266.117 232.874 266.034 234.196V333.396H289.258V234.196C289.173 232.902 289.173 231.604 289.258 230.311C290.451 221.54 294.821 213.513 301.54 207.753C308.258 201.993 316.857 198.9 325.704 199.062H337.357Z" fill="#8C442A"/>
</svg>
