<?xml version="1.0" encoding="UTF-8"?>
<svg width="203px" height="40px" viewBox="0 0 203 40" version="1.1" xmlns="http://www.w3.org/2000/svg" xmlns:xlink="http://www.w3.org/1999/xlink">
    <title>metaplex-logo</title>
    <g id="Page-1" stroke="none" stroke-width="1" fill="none" fill-rule="evenodd">
        <g id="metaplex-logo" transform="translate(-5.000000, -3.000000)">
            <g id="Sin-tiÌtulo-1_logo-negativo" transform="translate(5.000000, 3.000000)">
                <g>
                    <g id="Group" fill-rule="nonzero">
                        <path d="M5.20625864,32.786 C4.65918065,32.794 4.14015795,32.972 3.70730503,33.298 L3.6772458,33.322 C4.72731491,34.656 5.96775913,35.832 7.35849951,36.812 L7.38054294,36.78 C8.07591313,35.756 7.93162883,34.382 7.03586377,33.514 C6.54088845,33.034 5.89160908,32.776 5.20625864,32.786 Z" id="Path" fill="#FFFFFF"></path>
                        <path d="M0.00400789733,21.436 L15.7089536,5.292 C7.23024679,6.1 0.563109576,12.954 0.00400789733,21.436 Z" id="Path" fill="#FFFFFF"></path>
                        <path d="M34.7164067,24.362 L19.6647483,39.834 C27.6544916,38.792 33.9068115,32.362 34.7164067,24.362 Z" id="Path" fill="#FFFFFF"></path>
                        <path d="M34.6342448,11.15 C33.8486969,11.888 32.8447187,12.266 31.8327246,12.28 C31.6884403,12.282 31.544156,12.276 31.3998717,12.264 C30.4720434,12.182 29.5642547,11.794 28.8428332,11.094 C28.0993682,10.374 27.6825469,9.45 27.5883613,8.498 C27.4781441,7.376 27.8188154,6.218 28.6183909,5.318 L23.1275716,0 L18.0515696,5.218 L0,23.774 C0.202398815,26.796 1.17832182,29.6 2.72537019,32 C2.72537019,32 2.72737414,32 2.72737414,31.998 C2.82356367,31.926 2.92175716,31.858 3.02195459,31.796 C3.05602172,31.776 3.09008885,31.756 3.12415597,31.738 C3.19229023,31.698 3.26042448,31.658 3.33056269,31.622 C3.37264561,31.6 3.41472853,31.582 3.45681145,31.562 C3.52093781,31.532 3.58506417,31.502 3.65119447,31.474 C3.69528134,31.456 3.74137216,31.438 3.78746298,31.422 C3.85158934,31.398 3.9157157,31.376 3.981846,31.354 C4.02793682,31.34 4.07603159,31.326 4.12212241,31.312 C4.18825271,31.294 4.25438302,31.278 4.32051333,31.262 C4.36860809,31.252 4.41469891,31.24 4.46279368,31.232 C4.53092794,31.22 4.59906219,31.208 4.66719645,31.2 C4.71328727,31.194 4.75937808,31.186 4.8054689,31.182 C4.87761106,31.174 4.95175716,31.17 5.02590326,31.166 C5.06798618,31.164 5.1100691,31.16 5.15215202,31.16 C5.16217177,31.16 5.17219151,31.158 5.18221125,31.158 C5.22028628,31.158 5.2583613,31.162 5.29643633,31.162 C5.37659427,31.164 5.45875617,31.164 5.53891412,31.17 C5.59101678,31.174 5.64311945,31.18 5.69522211,31.186 C5.77137216,31.194 5.84752221,31.202 5.92166831,31.216 C5.97577493,31.224 6.02988154,31.236 6.08198421,31.246 C6.15412636,31.26 6.22827246,31.278 6.30041461,31.296 C6.35452122,31.31 6.40862784,31.326 6.4607305,31.342 C6.53287266,31.364 6.60301086,31.388 6.67314906,31.412 C6.72525173,31.43 6.77735439,31.45 6.82945706,31.472 C6.89959526,31.5 6.96973346,31.532 7.03786772,31.566 C7.08796644,31.59 7.13806515,31.612 7.18615992,31.638 C7.25629812,31.674 7.32643633,31.716 7.39457058,31.758 C7.4406614,31.786 7.48474827,31.81 7.52883514,31.84 C7.60298124,31.888 7.6751234,31.942 7.74726555,31.996 C7.78333662,32.022 7.82141165,32.048 7.85547878,32.076 C7.96168806,32.16 8.06388944,32.25 8.16208292,32.346 C8.16208292,32.346 8.16408687,32.346 8.16408687,32.348 C8.62900296,32.798 8.96566634,33.328 9.17608095,33.894 C9.21816387,34.008 9.25623889,34.122 9.28830207,34.238 C9.35242843,34.47 9.3965153,34.706 9.41855874,34.944 C9.46464956,35.42 9.43058243,35.902 9.31435341,36.368 C9.19812438,36.834 8.99973346,37.284 8.7211846,37.696 C11.2361402,39.136 14.1438697,39.968 17.2379664,39.99 L34.7885489,21.95 L40.1150444,16.474 L34.6342448,11.15 Z" id="Path" fill="#FF0051"></path>
                    </g>
                    <path d="M54.5935735,32.074 C53.8360809,32.566 52.3551629,32.96 50.9403751,32.96 C49.2951333,32.96 47.7480849,32.434 46.728075,31.35 C45.8723889,30.43 45.3132873,29.084 45.3132873,26.522 L45.3132873,20.576 L42.6800987,20.576 L42.6800987,16.438 L45.3132873,16.438 L45.3132873,12.234 L50.3151431,11.38 L50.3151431,16.438 L54.5935735,16.438 L54.5935735,20.576 L50.3151431,20.576 L50.3151431,25.996 C50.3151431,27.572 50.6778578,28.756 52.1908391,28.756 C53.014462,28.756 53.9342744,28.428 54.5935735,28.1 L54.5935735,32.074 Z" id="Path" fill="#FFFFFF" fill-rule="nonzero"></path>
                    <path d="M59.5633662,8.456 C61.1424778,8.456 62.4590721,9.738 62.4590721,11.314 C62.4590721,12.89 61.1424778,14.172 59.5633662,14.172 C57.9842547,14.172 56.6676581,12.89 56.6676581,11.314 C56.6656565,9.738 57.9822507,8.456 59.5633662,8.456 Z M57.0604344,16.438 L62.0622902,16.438 L62.0622902,32.6 L57.0604344,32.6 L57.0604344,16.438 Z" id="Shape" fill="#FFFFFF" fill-rule="nonzero"></path>
                    <path d="M79.013692,31.712 C77.4666436,32.566 75.5568806,32.96 73.7152517,32.96 C68.5150049,32.96 64.6974827,29.412 64.6974827,24.552 C64.6974827,19.46 68.9097828,16.078 73.977769,16.078 C75.7873346,16.078 77.4666436,16.506 78.7832379,17.162 L78.7832379,21.794 C77.334383,20.874 75.7552715,20.282 74.2082231,20.282 C71.5429714,20.282 69.6993386,22.088 69.6993386,24.52 C69.6993386,26.984 71.5750346,28.724 74.2743534,28.724 C75.853465,28.724 77.6650346,28.132 79.013692,27.114 L79.013692,31.712 Z" id="Path" fill="#FFFFFF" fill-rule="nonzero"></path>
                    <polygon id="Path" fill="#FFFFFF" fill-rule="nonzero" points="81.4805528 5.228 86.4824087 5.228 86.4824087 23.272 86.548539 23.304 92.209694 16.44 97.9029121 16.44 91.7147187 23.666 98.3638203 32.6 92.4401481 32.6 86.548539 24.356 86.4824087 24.388 86.4824087 32.6 81.4805528 32.6"></polygon>
                    <path d="M103.399743,25.834 C103.958845,28.068 105.802478,29.086 108.105015,29.086 C109.91458,29.086 111.890474,28.462 113.601846,27.312 L113.601846,31.484 C112.022734,32.47 109.585933,32.962 107.44772,32.962 C102.115212,32.962 98.2656269,29.644 98.2656269,24.586 C98.2656269,19.428 102.28154,16.078 106.756357,16.078 C110.738203,16.078 114.491599,18.706 114.491599,24.126 C114.491599,24.684 114.459536,25.406 114.393406,25.834 L103.399743,25.834 L103.399743,25.834 Z M109.882517,22.68 C109.585933,20.94 108.303406,19.888 106.690227,19.888 C105.143179,19.888 103.794521,20.84 103.365676,22.68 L109.882517,22.68 Z" id="Shape" fill="#FFFFFF" fill-rule="nonzero"></path>
                    <path d="M127.425084,32.074 C126.667591,32.566 125.186673,32.96 123.771885,32.96 C122.126644,32.96 120.579595,32.434 119.559585,31.35 C118.703899,30.43 118.144798,29.084 118.144798,26.522 L118.144798,20.576 L115.511609,20.576 L115.511609,16.438 L118.144798,16.438 L118.144798,12.234 L123.146654,11.38 L123.146654,16.438 L127.425084,16.438 L127.425084,20.576 L123.146654,20.576 L123.146654,25.996 C123.146654,27.572 123.509368,28.756 125.022349,28.756 C125.845972,28.756 126.765785,28.428 127.425084,28.1 L127.425084,32.074 L127.425084,32.074 Z" id="Path" fill="#FFFFFF" fill-rule="nonzero"></path>
                    <path d="M134.893801,39.826 L129.891945,39.826 L129.891945,16.438 L134.795607,16.438 L134.795607,17.26 L134.861737,17.292 C135.915814,16.57 137.264472,16.076 138.877651,16.076 C143.02382,16.076 146.546762,19.36 146.546762,24.386 C146.546762,29.576 142.827433,32.96 138.088095,32.96 C136.7715,32.96 135.719427,32.698 134.961935,32.336 L134.895805,32.368 L134.895805,39.826 L134.893801,39.826 Z M137.460859,28.92 C140.05998,28.92 141.508835,27.048 141.508835,24.65 C141.508835,22.22 140.05998,20.248 137.593119,20.248 C136.57311,20.248 135.61923,20.61 134.893801,21.134 L134.893801,28.294 C135.519033,28.626 136.440849,28.92 137.460859,28.92 Z" id="Shape" fill="#FFFFFF" fill-rule="nonzero"></path>
                    <polygon id="Path" fill="#FFFFFF" fill-rule="nonzero" points="149.127848 5.228 154.129704 5.228 154.129704 32.6 149.127848 32.6"></polygon>
                    <path d="M166.983031,31.614 C165.928954,32.37 164.317779,32.96 162.474146,32.96 C161.091422,32.96 159.774827,32.632 158.722754,31.908 C157.538421,31.086 156.812991,29.806 156.812991,28.13 C156.812991,26.356 157.636614,25.01 158.786881,24.222 C160.037345,23.368 161.650523,23.072 163.327828,23.072 C164.281708,23.072 165.237591,23.17 166.125341,23.368 L166.125341,22.744 C166.125341,21.956 165.862823,21.364 165.500109,21.036 C165.0392,20.608 164.183514,20.346 162.999181,20.346 C161.189615,20.346 159.542369,20.938 158.259842,21.628 L158.259842,17.326 C159.576436,16.67 161.550326,16.078 163.920997,16.078 C166.093277,16.078 168.035104,16.57 169.317631,17.622 C170.536032,18.608 171.127196,20.052 171.127196,22.09 L171.127196,27.576 C171.127196,28.332 171.423781,28.856 172.115143,28.856 C172.37766,28.856 172.674245,28.79 172.938766,28.66 L172.938766,32.404 C172.379664,32.7 171.489911,32.896 170.536032,32.896 C169.219437,32.896 167.93691,32.534 167.047157,31.616 L166.983031,31.616 L166.983031,31.614 Z M166.127345,26.26 C165.600306,26.096 164.876881,26.03 164.349842,26.03 C163.067315,26.03 161.782784,26.424 161.782784,27.672 C161.782784,28.724 162.7046,29.282 163.856871,29.282 C164.712557,29.282 165.53618,28.986 166.127345,28.624 L166.127345,26.26 L166.127345,26.26 Z" id="Shape" fill="#FFFFFF" fill-rule="nonzero"></path>
                    <path d="M185.509536,32.074 C184.752043,32.566 183.271125,32.96 181.856338,32.96 C180.211096,32.96 178.664047,32.434 177.644038,31.35 C176.788351,30.43 176.22925,29.084 176.22925,26.522 L176.22925,20.576 L173.596061,20.576 L173.596061,16.438 L176.22925,16.438 L176.22925,12.234 L181.231106,11.38 L181.231106,16.438 L185.509536,16.438 L185.509536,20.576 L181.231106,20.576 L181.231106,25.996 C181.231106,27.572 181.59382,28.756 183.106802,28.756 C183.930424,28.756 184.850237,28.428 185.509536,28.1 L185.509536,32.074 L185.509536,32.074 Z" id="Path" fill="#FFFFFF" fill-rule="nonzero"></path>
                    <path d="M191.827986,25.834 C192.387088,28.068 194.230721,29.086 196.533258,29.086 C198.342823,29.086 200.318717,28.462 202.030089,27.312 L202.030089,31.484 C200.450977,32.47 198.014176,32.962 195.875962,32.962 C190.543455,32.962 186.69387,29.644 186.69387,24.586 C186.69387,19.428 190.709783,16.078 195.1846,16.078 C199.166446,16.078 202.919842,18.706 202.919842,24.126 C202.919842,24.684 202.887779,25.406 202.821649,25.834 L191.827986,25.834 L191.827986,25.834 Z M198.312764,22.68 C198.01618,20.94 196.733653,19.888 195.120474,19.888 C193.573425,19.888 192.224768,20.84 191.795923,22.68 L198.312764,22.68 Z" id="Shape" fill="#FFFFFF" fill-rule="nonzero"></path>
                </g>
            </g>
        </g>
    </g>
</svg>