<?xml version="1.0" encoding="UTF-8"?>
<svg width="191px" height="48px" viewBox="0 0 191 48" version="1.1" xmlns="http://www.w3.org/2000/svg" xmlns:xlink="http://www.w3.org/1999/xlink">
    <title>metaplex-logo nftplate</title>
    <g id="Page-1" stroke="none" stroke-width="1" fill="none" fill-rule="evenodd">
        <g id="Artboard" transform="translate(-13.000000, -6.000000)">
            <g id="metaplex-logo-nftplate" transform="translate(13.000000, 6.000000)">
                <g id="metaplex-logo-copy">
                    <g id="Sin-tiÌtulo-1_logo-negativo" fill-rule="nonzero">
                        <g id="Group">
                            <path d="M6.1903685,39.3432 C5.53987943,39.3528 4.92274878,39.5664 4.40807611,39.9576 L4.37233495,39.9864 C5.62089272,41.5872 7.09581116,42.9984 8.74943539,44.1744 L8.77564557,44.136 C9.60245768,42.9072 9.43090013,41.2584 8.36581363,40.2168 C7.7772759,39.6408 7.0052669,39.3312 6.1903685,39.3432 Z" id="Path" fill="#FFFFFF"></path>
                            <path d="M0.00476548768,25.7232 L18.678329,6.3504 C8.59693978,7.32 0.66955102,15.5448 0.00476548768,25.7232 Z" id="Path" fill="#FFFFFF"></path>
                            <path d="M41.2786543,29.2344 L23.3818653,47.8008 C32.8818653,46.5504 40.3160258,38.8344 41.2786543,29.2344 Z" id="Path" fill="#FFFFFF"></path>
                            <path d="M41.1809618,13.38 C40.2469262,14.2656 39.0531716,14.7192 37.8498859,14.736 C37.6783284,14.7384 37.5067708,14.7312 37.3352133,14.7168 C36.2320029,14.6184 35.1526199,14.1528 34.2948321,13.3128 C33.4108342,12.4488 32.9152234,11.34 32.8032345,10.1976 C32.6721836,8.8512 33.07725,7.4616 34.0279648,6.3816 L27.4992467,0 L21.4637565,6.2616 L0,28.5288 C0.240657128,32.1552 1.40105338,35.52 3.24053163,38.4 C3.24053163,38.4 3.24291437,38.4 3.24291437,38.3976 C3.35728607,38.3112 3.47404052,38.2296 3.59317771,38.1552 C3.63368436,38.1312 3.674191,38.1072 3.71469765,38.0856 C3.79571094,38.0376 3.87672423,37.9896 3.96012027,37.9464 C4.01015789,37.92 4.06019551,37.8984 4.11023313,37.8744 C4.18648093,37.8384 4.26272873,37.8024 4.34135928,37.7688 C4.39377965,37.7472 4.44858275,37.7256 4.50338586,37.7064 C4.57963366,37.6776 4.65588147,37.6512 4.73451201,37.6248 C4.78931512,37.608 4.84650098,37.5912 4.90130408,37.5744 C4.97993463,37.5528 5.05856518,37.5336 5.13719572,37.5144 C5.19438158,37.5024 5.24918468,37.488 5.30637054,37.4784 C5.38738383,37.464 5.46839712,37.4496 5.54941041,37.44 C5.60421352,37.4328 5.65901663,37.4232 5.71381973,37.4184 C5.79959851,37.4088 5.88776003,37.404 5.97592156,37.3992 C6.02595918,37.3968 6.0759968,37.392 6.12603442,37.392 C6.13794814,37.392 6.14986186,37.3896 6.16177558,37.3896 C6.20704771,37.3896 6.25231984,37.3944 6.29759198,37.3944 C6.39290173,37.3968 6.49059423,37.3968 6.58590398,37.404 C6.64785532,37.4088 6.70980666,37.416 6.771758,37.4232 C6.86230227,37.4328 6.95284653,37.4424 7.04100805,37.4592 C7.10534214,37.4688 7.16967622,37.4832 7.23162756,37.4952 C7.31740634,37.512 7.40556786,37.5336 7.49134664,37.5552 C7.55568072,37.572 7.62001481,37.5912 7.68196615,37.6104 C7.76774493,37.6368 7.85114096,37.6656 7.93453699,37.6944 C7.99648833,37.716 8.05843967,37.74 8.12039101,37.7664 C8.20378705,37.8 8.28718308,37.8384 8.36819637,37.8792 C8.42776497,37.908 8.48733357,37.9344 8.54451942,37.9656 C8.62791545,38.0088 8.71131149,38.0592 8.79232478,38.1096 C8.84712789,38.1432 8.89954825,38.172 8.95196862,38.208 C9.04013014,38.2656 9.12590892,38.3304 9.21168769,38.3952 C9.25457708,38.4264 9.29984922,38.4576 9.34035586,38.4912 C9.46664129,38.592 9.58816122,38.7 9.70491567,38.8152 C9.70491567,38.8152 9.70729841,38.8152 9.70729841,38.8176 C10.260095,39.3576 10.660396,39.9936 10.9105841,40.6728 C10.9606217,40.8096 11.0058938,40.9464 11.0440177,41.0856 C11.1202655,41.364 11.1726859,41.6472 11.1988961,41.9328 C11.2536992,42.504 11.2131925,43.0824 11.0749934,43.6416 C10.9367942,44.2008 10.7009026,44.7408 10.3697012,45.2352 C13.3600447,46.9632 16.817406,47.9616 20.4963625,47.988 L41.3644331,26.34 L47.6977662,19.7688 L41.1809618,13.38 Z" id="Path" fill="#FF0051"></path>
                            <path d="M57.27,34.273 L57.27,25.221 C57.27,22.9683333 58.3136667,21.842 60.401,21.842 C61.4136667,21.842 62.1163333,22.0848333 62.509,22.5705 C62.9016667,23.0561667 63.098,23.795 63.098,24.787 L63.098,24.787 L63.098,34.273 L68.368,34.273 L68.368,23.609 C68.368,21.5216667 67.8203333,19.8683333 66.725,18.649 C65.6296667,17.4296667 64.121,16.82 62.199,16.82 C60.1736667,16.82 58.5306667,17.595 57.27,19.145 L57.27,19.145 L57.27,17.223 L52,17.223 L52,34.273 L57.27,34.273 Z M79.2128333,34.273 L79.2128333,22.183 L84.3588333,22.183 L84.3588333,17.223 L79.2128333,17.223 L79.2128333,17.192 C79.2128333,15.4766667 80.0705,14.619 81.7858333,14.619 C82.3851667,14.619 83.0361667,14.712 83.7388333,14.898 L83.7388333,14.898 L84.4208333,15.084 L85.3508333,10.837 C84.1935,10.279 82.7985,10 81.1658333,10 C79.2231667,10 77.5336667,10.5735 76.0973333,11.7205 C74.661,12.8675 73.9428333,14.5983333 73.9428333,16.913 L73.9428333,16.913 L73.9428333,17.223 L71.0288333,17.223 L71.0288333,22.183 L73.9428333,22.183 L73.9428333,34.273 L79.2128333,34.273 Z M96.3506667,34.676 C97.3426667,34.676 98.345,34.521 99.3576667,34.211 C100.370333,33.901 101.145333,33.56 101.682667,33.188 L101.682667,33.188 L100.783667,28.941 C99.027,29.499 97.8593333,29.778 97.2806667,29.778 C95.834,29.778 95.1106667,28.972 95.1106667,27.36 L95.1106667,27.36 L95.1106667,22.183 L100.845667,22.183 L100.845667,17.223 L95.1106667,17.223 L95.1106667,12.573 L89.8406667,13.72 L89.8406667,17.223 L86.9266667,17.223 L86.9266667,22.183 L89.8406667,22.183 L89.8406667,27.67 C89.8406667,30.0466667 90.4658333,31.8085 91.7161667,32.9555 C92.9665,34.1025 94.5113333,34.676 96.3506667,34.676 Z M110.3885,42.023 L110.3885,32.444 C111.6285,33.932 113.2405,34.676 115.2245,34.676 C117.415167,34.676 119.244167,33.839 120.7115,32.165 C122.178833,30.491 122.9125,28.352 122.9125,25.748 C122.9125,23.144 122.173667,21.005 120.696,19.331 C119.218333,17.657 117.404833,16.82 115.2555,16.82 C113.2095,16.82 111.587167,17.595 110.3885,19.145 L110.3885,19.145 L110.3885,17.223 L105.1185,17.223 L105.1185,42.023 L110.3885,42.023 Z M113.9845,29.654 C112.951167,29.654 112.0935,29.3026667 111.4115,28.6 C110.7295,27.8766667 110.3885,26.926 110.3885,25.748 C110.3885,24.5906667 110.7295,23.6503333 111.4115,22.927 C112.0935,22.2036667 112.951167,21.842 113.9845,21.842 C115.017833,21.842 115.8755,22.2036667 116.5575,22.927 C117.2395,23.6503333 117.5805,24.5906667 117.5805,25.748 C117.5805,26.926 117.2395,27.8715 116.5575,28.5845 C115.8755,29.2975 115.017833,29.654 113.9845,29.654 Z M131.618333,34.273 L131.618333,10.403 L126.348333,10.403 L126.348333,34.273 L131.618333,34.273 Z M142.742167,34.676 C144.726167,34.676 146.327833,33.932 147.547167,32.444 L147.547167,32.444 L147.547167,34.273 L152.817167,34.273 L152.848167,17.223 L147.578167,17.223 L147.578167,19.145 C146.3795,17.595 144.757167,16.82 142.711167,16.82 C140.561833,16.82 138.748333,17.657 137.270667,19.331 C135.793,21.005 135.054167,23.144 135.054167,25.748 C135.054167,28.352 135.787833,30.491 137.255167,32.165 C138.7225,33.839 140.5515,34.676 142.742167,34.676 Z M143.982167,29.654 C142.948833,29.654 142.091167,29.3026667 141.409167,28.6 C140.727167,27.8766667 140.386167,26.926 140.386167,25.748 C140.386167,24.5906667 140.727167,23.6503333 141.409167,22.927 C142.091167,22.2036667 142.948833,21.842 143.982167,21.842 C145.0155,21.842 145.873167,22.2036667 146.555167,22.927 C147.237167,23.6503333 147.578167,24.5906667 147.578167,25.748 C147.578167,26.926 147.237167,27.8715 146.555167,28.5845 C145.873167,29.2975 145.0155,29.654 143.982167,29.654 Z M165.088,34.676 C166.08,34.676 167.082333,34.521 168.095,34.211 C169.107667,33.901 169.882667,33.56 170.42,33.188 L170.42,33.188 L169.521,28.941 C167.764333,29.499 166.596667,29.778 166.018,29.778 C164.571333,29.778 163.848,28.972 163.848,27.36 L163.848,27.36 L163.848,22.183 L169.583,22.183 L169.583,17.223 L163.848,17.223 L163.848,12.573 L158.578,13.72 L158.578,17.223 L155.664,17.223 L155.664,22.183 L158.578,22.183 L158.578,27.67 C158.578,30.0466667 159.203167,31.8085 160.4535,32.9555 C161.703833,34.1025 163.248667,34.676 165.088,34.676 Z M181.574833,34.676 C183.558833,34.676 185.320667,34.18 186.860333,33.188 C188.4,32.196 189.448833,30.6976667 190.006833,28.693 L190.006833,28.693 L184.581833,28.693 C184.375167,29.2923333 184.003167,29.7625 183.465833,30.1035 C182.9285,30.4445 182.298167,30.615 181.574833,30.615 C180.582833,30.615 179.740667,30.2998333 179.048333,29.6695 C178.356,29.0391667 177.947833,28.104 177.823833,26.864 L177.823833,26.864 L190.254833,26.864 C190.5235,24.0326667 189.820833,21.6508333 188.146833,19.7185 C186.472833,17.7861667 184.240833,16.82 181.450833,16.82 C178.826167,16.82 176.671667,17.6725 174.987333,19.3775 C173.303,21.0825 172.460833,23.206 172.460833,25.748 C172.460833,28.3106667 173.308167,30.4393333 175.002833,32.134 C176.6975,33.8286667 178.888167,34.676 181.574833,34.676 Z M184.767833,23.671 L177.978833,23.671 C178.474833,21.811 179.621833,20.881 181.419833,20.881 C182.329167,20.881 183.068,21.1341667 183.636333,21.6405 C184.204667,22.1468333 184.581833,22.8236667 184.767833,23.671 L184.767833,23.671 Z" id="nftplate" fill="#FFFFFF"></path>
                        </g>
                    </g>
                </g>
            </g>
        </g>
    </g>
</svg>