<svg width="32" height="32" viewBox="0 0 32 32" fill="none" xmlns="http://www.w3.org/2000/svg">
<circle cx="16" cy="16" r="16" fill="white"/>
<path d="M24 16C24 20.4183 20.4183 24 16 24M24 16C24 11.5817 20.4183 8 16 8M24 16H8M16 24C11.5817 24 8 20.4183 8 16M16 24C18.6585 24 20.8136 20.4183 20.8136 16C20.8136 11.5817 18.6585 8 16 8M16 24C13.3415 24 11.1864 20.4183 11.1864 16C11.1864 11.5817 13.3415 8 16 8M16 24C16.8986 24 17.6271 20.4183 17.6271 16C17.6271 11.5817 16.8986 8 16 8M16 24C15.1014 24 14.3729 20.4183 14.3729 16C14.3729 11.5817 15.1014 8 16 8M8 16C8 11.5817 11.5817 8 16 8M10.0339 10.7119H22M10 21.2881H22" stroke="#28282A"/>
</svg>
